PathFileType	4	(X/Y/Z)	C:/Users/opensim2020/Desktop/walking_exp_matlab/subject06_walking14_straight_04.trc	
DataRate	CameraRate	NumFrames	NumMarkers	Units	OrigDataRate	OrigDataStartFrame	OrigNumFrames	
100.00	100.00	4	45	mm	100.00	2945	227	
Frame#	Time	LFHD			RFHD			LBHD			RBHD			C7			T10			CLAV			STRN			RBAK			LSHO			LUPA			LELB			LFRM			LWRA			LWRB			LFIN			RSHO			RUPA			RELB			RFRM			RWRA			RWRB			RFIN			LASI			RASI			LPSI			RPSI			LTHI			LKNE			LTIB			LANK			LHEE			LTOE			RTHI			RKNE			RTIB			RANK			RHEE			RTOE			*39			*40			*41			*42			*43			*44			
		X1	Y1	Z1	X2	Y2	Z2	X3	Y3	Z3	X4	Y4	Z4	X5	Y5	Z5	X6	Y6	Z6	X7	Y7	Z7	X8	Y8	Z8	X9	Y9	Z9	X10	Y10	Z10	X11	Y11	Z11	X12	Y12	Z12	X13	Y13	Z13	X14	Y14	Z14	X15	Y15	Z15	X16	Y16	Z16	X17	Y17	Z17	X18	Y18	Z18	X19	Y19	Z19	X20	Y20	Z20	X21	Y21	Z21	X22	Y22	Z22	X23	Y23	Z23	X24	Y24	Z24	X25	Y25	Z25	X26	Y26	Z26	X27	Y27	Z27	X28	Y28	Z28	X29	Y29	Z29	X30	Y30	Z30	X31	Y31	Z31	X32	Y32	Z32	X33	Y33	Z33	X34	Y34	Z34	X35	Y35	Z35	X36	Y36	Z36	X37	Y37	Z37	X38	Y38	Z38	X39	Y39	Z39	X40	Y40	Z40	X41	Y41	Z41	X42	Y42	Z42	X43	Y43	Z43	X44	Y44	Z44	X45	Y45	Z45	

29	0.280	-905.75079	869.34686	1641.92480	-1038.16040	869.02234	1634.87109	-907.66711	1001.88525	1584.40552	-1037.06323	999.42621	1582.90466	-965.63293	1000.74780	1427.86975	-975.86395	1029.08337	1097.53296	-973.76587	888.18469	1353.34705	-969.89172	845.44427	1176.98035	-1036.09216	1075.37927	1256.18628	-809.29083	941.91180	1384.02185	-741.35797	897.18439	1187.14441	-732.52191	862.16046	1079.10669	-722.57489	749.12109	981.68762	-776.80945	629.83301	949.91132	-739.58112	663.79449	900.16815	-746.66730	576.07349	877.67194	-1131.32983	947.08649	1387.35925	-1211.50928	1035.87415	1206.43457	-1224.42065	1057.11548	1084.58704	-1241.95496	1077.22424	965.43170	-1214.16699	1058.58655	813.36603	-1251.06177	1113.82581	832.25562	-1252.91577	1104.59412	747.77106	-867.98151	858.85760	929.62360	-1089.31104	852.08508	944.88531	-900.48450	1014.08582	966.84070	-1070.28357	1004.99817	971.68616	-825.14508	985.87317	625.21185	-850.72809	1034.01489	467.09229	-855.39038	1193.00098	260.44711	-898.13330	1284.96826	113.89416	-939.88733	1330.03601	120.56060	-916.35175	1166.17285	32.34026	-1149.25488	834.79047	626.38092	-1115.92078	789.90216	513.85559	-1122.85413	764.23157	251.66945	-1081.20935	730.91931	68.12096	-1036.22864	764.91858	39.41463	-1074.46484	575.36316	52.37721	-964.18060	970.46735	1679.89832															 
30	0.290	-907.51477	858.88776	1643.42651	-1039.88403	858.33820	1636.52014	-909.65265	991.54053	1585.85596	-1039.30066	988.83032	1584.41064	-967.70062	989.46130	1429.48572	-976.23541	1016.87579	1098.73035	-975.21204	877.26984	1355.05273	-971.18805	833.56903	1178.71436	-1038.49170	1063.60193	1257.23938	-810.78601	931.36475	1385.33472	-743.11182	888.92279	1187.67834	-734.26337	854.14996	1079.49536	-723.49457	742.14044	980.81213	-776.47150	622.57660	947.79785	-739.77240	657.68835	898.42487	-745.52887	570.12738	875.15448	-1133.17615	934.88385	1388.28809	-1213.60095	1021.94824	1206.42310	-1226.27283	1042.62720	1084.51038	-1243.68091	1061.69482	965.18658	-1215.69543	1041.62207	813.33307	-1252.63660	1097.02173	831.64471	-1254.32898	1086.84753	747.26318	-869.69043	846.12469	930.64093	-1090.80676	839.82697	947.15332	-900.89417	1001.26331	967.77649	-1070.44775	992.96716	973.87244	-826.83887	972.70135	625.66681	-852.44659	1020.59186	467.48935	-855.78912	1184.29895	264.66449	-897.20074	1279.89368	120.17049	-938.54242	1324.59448	128.32980	-916.45404	1165.41479	32.45607	-1150.39087	823.00732	629.11646	-1117.31384	777.99347	516.44592	-1124.58667	756.30865	252.72215	-1082.42249	728.90869	68.33698	-1037.45203	763.77417	40.19822	-1074.39075	573.81085	47.96012	-966.13855	959.95349	1681.41553															 
31	0.300	-909.31714	848.41736	1645.03723	-1041.61365	847.57318	1638.19653	-911.79865	981.07166	1587.34827	-1041.71960	978.24976	1585.95300	-969.70319	978.35944	1431.08716	-976.94037	1004.96857	1100.30591	-976.57361	865.97870	1356.80054	-972.44165	821.59900	1180.65356	-1040.65845	1051.73877	1258.63489	-812.46515	920.67859	1386.97961	-744.91785	880.60840	1188.61121	-736.13593	846.24652	1080.28625	-724.39508	735.59827	979.93512	-776.04474	616.00549	945.29517	-740.17645	652.28949	896.33380	-744.28778	565.16351	872.09357	-1134.90686	922.78961	1389.57251	-1215.70483	1007.77954	1206.66089	-1228.08167	1027.67590	1084.69299	-1245.40149	1045.60742	965.19098	-1217.28149	1024.17749	813.73578	-1254.29175	1079.52551	831.33087	-1255.67761	1068.48718	747.02679	-871.50452	833.51453	932.04260	-1092.31433	827.48499	950.04333	-901.36261	988.44287	969.08197	-1070.63293	980.84821	975.98590	-828.54230	959.11096	626.18054	-854.12738	1005.78925	467.85388	-856.29236	1174.48560	269.18198	-896.25104	1273.86719	127.03329	-937.67157	1318.04712	136.95567	-916.47711	1164.60596	32.56961	-1151.53625	811.25128	631.76306	-1118.63440	766.67792	518.42218	-1126.79065	749.94604	253.09225	-1083.66113	727.31769	67.83784	-1038.82349	762.95386	40.78106	-1074.43494	572.57410	43.69898	-968.23126	949.44794	1682.97729															 
32	0.310	-911.12866	838.07745	1646.82703	-1043.41321	836.88928	1639.86365	-913.92230	970.61694	1588.93396	-1043.51160	967.20135	1587.37341	-971.59271	967.38794	1432.43945	-978.18109	993.17023	1102.09436	-977.99506	854.82062	1358.58545	-973.63953	809.71936	1182.66895	-1042.60864	1039.85938	1260.18481	-814.17902	910.02106	1388.76770	-746.70612	872.13336	1189.84399	-737.91260	838.57019	1081.32617	-725.48798	729.59344	979.10254	-775.63141	609.65479	942.56598	-739.97003	647.70740	894.07587	-742.86060	560.99841	868.49762	-1136.52344	910.80890	1391.08484	-1217.67957	993.56781	1207.09473	-1229.86780	1012.74579	1085.07434	-1247.14758	1029.09814	965.45886	-1218.99219	1006.04126	814.60321	-1255.94824	1061.36792	831.15918	-1256.65283	1049.19543	746.70715	-873.51093	820.80676	933.71729	-1093.61206	815.26276	952.98267	-902.12836	975.71759	970.50690	-1071.08337	968.50238	978.21130	-830.19794	944.98389	626.59088	-855.57770	989.65173	467.92633	-856.93982	1163.56592	273.82843	-895.74316	1266.73218	134.49371	-937.24261	1310.04944	145.96954	-916.59351	1163.67505	32.81715	-1153.10974	799.54132	634.19135	-1120.38599	756.27594	519.38177	-1128.25208	744.32086	253.32796	-1084.73267	725.38287	67.51343	-1040.05505	762.03796	41.31939	-1075.21082	571.26392	41.15690	-970.35211	939.01831	1684.56873															 
